<svg width="800" height="620" viewBox="0 0 800 620" fill="none" xmlns="http://www.w3.org/2000/svg">
  <rect width="800" height="620" rx="36" fill="#FFF9F3"/>
  <rect x="48" y="52" width="704" height="84" rx="20" fill="#F7E5D2"/>
  <path d="M55 427C116.667 369.667 178.333 341 240 341C332.5 341 390.5 470 483 470C575.5 470 622.5 286 715 286C727.5 286 739.833 288.5 752 293.5V620H48L55 427Z" fill="#D96C43"/>
  <path d="M48 475C101.667 433 155.333 412 209 412C289.5 412 359.5 507 440 507C520.5 507 578 358 658.5 358C692.167 358 723.333 365 752 379V620H48V475Z" fill="#E8A786"/>
  <circle cx="146" cy="95" r="16" fill="#D96C43"/>
  <circle cx="194" cy="95" r="16" fill="#F0B99B"/>
  <rect x="554" y="82" width="138" height="26" rx="13" fill="#E8A786"/>
</svg>
